<svg width="44" height="18" viewBox="0 0 44 18" fill="none" xmlns="http://www.w3.org/2000/svg">
<path fill-rule="evenodd" clip-rule="evenodd" d="M43.291 7.92205C39.027 5.31092 33.7712 4.0538 29.3273 4.16888L25.612 0.383898C25.1097 -0.127966 24.295 -0.127966 23.7926 0.383898C23.2901 0.895762 23.2901 1.7256 23.7926 2.23746L26.7769 5.27771C25.0004 6.27296 23.2098 6.65786 21.5298 6.68128C20.8104 8.09065 20.2758 9.13654 19.8664 9.93766C19.0195 11.5946 18.7079 12.2044 18.4025 12.8174C18.2246 13.1744 18.0489 13.5325 17.7708 14.0992C17.6238 14.3989 17.4482 14.7569 17.2284 15.2038H26.8972C26.4322 11.4775 29.2901 8.21355 32.9363 8.21355C36.5306 8.21355 39.3859 11.3975 38.9887 15.0964C41.789 14.56 43.9148 12.0517 43.9148 9.04539C43.9147 8.58543 43.678 8.15902 43.291 7.92205ZM16.258 11.328C15.1877 9.43702 13.1982 8.21355 10.9791 8.21355C7.38428 8.21355 4.52865 11.3982 4.9268 15.0984C3.09501 14.7514 1.51263 13.562 0.648502 11.8223C0.428074 11.3784 0.473532 10.8452 0.765664 10.4466L1.72054 9.14369L0.396167 7.84839C-0.355006 7.11389 0.0197228 5.82427 1.03507 5.61762L3.89034 5.03632L3.89042 5.0363L3.8907 5.03625C6.52774 4.49932 7.86781 4.22647 7.93681 4.21449C8.25055 4.06901 9.00636 3.62364 9.00636 2.70869C9.00636 1.97463 9.59877 1.38141 10.3231 1.39836C11.0353 1.41505 11.591 2.06087 11.5788 2.78655C11.5685 3.39715 11.4373 3.93243 11.2311 4.39781C12.8363 4.61189 14.4076 4.99461 15.9301 5.54326L15.2318 3.07088C15.0355 2.37526 15.4299 1.64914 16.1127 1.44904C16.7958 1.24886 17.5084 1.6508 17.7048 2.34651L18.4538 4.99845C18.6906 5.83694 18.602 6.73528 18.2069 7.50928C18.2138 7.49582 17.275 9.33418 16.258 11.328ZM10.9791 18C12.9212 18 14.4956 16.396 14.4956 14.4174C14.4956 12.4389 12.9212 10.8349 10.9791 10.8349C9.03692 10.8349 7.4625 12.4389 7.4625 14.4174C7.4625 16.396 9.03692 18 10.9791 18ZM32.9362 18C34.8783 18 36.4528 16.396 36.4528 14.4174C36.4528 12.4389 34.8783 10.8349 32.9362 10.8349C30.994 10.8349 29.4196 12.4389 29.4196 14.4174C29.4196 16.396 30.994 18 32.9362 18Z" fill="#19B89D"/>
</svg>
