<svg width="44" height="20" viewBox="0 0 44 20" fill="none" xmlns="http://www.w3.org/2000/svg">
<path fill-rule="evenodd" clip-rule="evenodd" d="M17.484 5.74076L15.7262 0H14.6435C12.8228 0 11.08 0.76042 9.86209 2.08639L6.50514 5.74084H17.484V5.74076ZM28.5629 3.96218L29.2893 5.74118H20.1703L18.4128 0H22.5907C25.2358 0 27.5808 1.55546 28.5629 3.96218ZM32.9363 20C34.8784 20 36.4528 18.4575 36.4528 16.5546C36.4528 14.6518 34.8784 13.1092 32.9363 13.1092C30.9941 13.1092 29.4197 14.6518 29.4197 16.5546C29.4197 18.4575 30.9941 20 32.9363 20ZM28.7555 8.26176H20.4996V9.65471C20.4996 10.3334 19.9673 10.9175 19.2753 10.9494C18.5364 10.9835 17.9265 10.4067 17.9265 9.69034V8.26176H2.30575C1.06578 8.26176 0.00060039 9.23076 0.00060039 10.5042C0.00060039 10.5927 0.00034308 10.6763 0 10.7563H1.42241C2.11517 10.7563 2.71127 11.2779 2.74387 11.9559C2.77869 12.6797 2.18997 13.2773 1.45878 13.2773H0.316663C1.0114 15.2962 2.78632 16.8107 4.92671 17.2079C4.52943 13.6508 7.38437 10.5882 10.9792 10.5882C14.6208 10.5882 17.4838 13.7225 17.0182 17.3109H26.8973C26.4323 13.7272 29.2902 10.5882 32.9364 10.5882C36.5307 10.5882 39.386 13.6503 38.9888 17.2076C41.7891 16.6918 43.9149 14.2794 43.9149 11.3882C43.9149 10.4561 43.1949 9.66773 42.2386 9.57462L28.7555 8.26176ZM10.9792 20C12.9213 20 14.4957 18.4575 14.4957 16.5546C14.4957 14.6518 12.9213 13.1092 10.9792 13.1092C9.03701 13.1092 7.46259 14.6518 7.46259 16.5546C7.46259 18.4575 9.03701 20 10.9792 20Z" fill="#FFD473"/>
</svg>
