<svg width="44" height="24" viewBox="0 0 44 24" fill="none" xmlns="http://www.w3.org/2000/svg">
<path fill-rule="evenodd" clip-rule="evenodd" d="M25.475 5.61494C28.7742 5.61405 28.9454 5.614 29.1159 5.62552L29.1444 5.62751C29.172 5.62948 29.2037 5.63174 29.2507 5.63432L28.6199 4.05557C27.6354 1.59191 25.2863 0 22.6355 0H18.5275L20.2106 5.61574C22.5243 5.61574 24.221 5.61528 25.47 5.61494H25.472L25.475 5.61494ZM7.88211 5.61574L9.00428 8.60215e-05H3.43897C2.87513 8.60215e-05 2.37678 0.366882 2.2086 0.905548C1.62408 2.77787 1.197 4.14512 0.884787 5.14465L0.884715 5.14488L0.73761 5.61583H7.88211V5.61574ZM15.836 8.60215e-05L17.519 5.61574H10.5115L11.6334 8.60215e-05H15.836ZM7.64991 12.5041V8.1963H0.00396191C-0.000725074 8.51751 -0.000396808 9.29883 0.000445052 11.3026L0.000610352 11.6989H1.46249C2.1744 11.6989 2.75156 12.2766 2.75156 12.9892C2.75156 13.7018 2.1744 14.2796 1.46249 14.2796H0.00138379L0.00155566 15.914C0.00155566 17.9727 1.61555 19.6606 3.6435 19.7779C3.36102 16.6956 5.0051 13.8568 7.64991 12.5041ZM41.2529 12.9269C41.218 13.6679 41.8079 14.2796 42.5405 14.2796H43.9859C43.8224 16.5043 42.4161 18.4723 40.3862 19.3294C40.5163 15.1178 37.1306 11.6989 33.0015 11.6989C28.6853 11.6989 25.2398 15.4171 25.6439 19.7849H18.3589C18.7896 15.1299 14.856 11.2541 10.2279 11.7394V8.1963H17.9623V9.65867C17.9623 10.392 18.5734 10.9825 19.3137 10.9475C20.007 10.9148 20.5404 10.317 20.5404 9.62219V8.1963H28.8411L41.8974 8.91243C42.4392 8.94219 42.9046 9.3089 43.0612 9.8289L43.2567 10.4773L43.2578 10.4811C43.4207 11.0213 43.5381 11.4107 43.624 11.6989H42.577C41.8829 11.6989 41.2856 12.2329 41.2529 12.9269ZM32.2994 23.8622C34.4622 24.18 36.5449 23.0021 37.4114 21.0228C38.8004 17.8459 36.4592 14.2796 33.0016 14.2796C30.0863 14.2796 27.8206 16.8699 28.239 19.7849C28.5391 21.8747 30.1922 23.5529 32.2994 23.8622ZM6.2389 19.7849C5.81944 16.8615 8.09575 14.2796 11.0015 14.2796C13.9189 14.2796 16.182 16.8722 15.7641 19.7849C15.5231 21.4626 14.4018 22.9139 12.8018 23.5629C10.9654 24.3079 8.86472 23.8454 7.50175 22.3982C6.48501 21.3186 6.30397 20.1718 6.25545 19.8645C6.24731 19.8129 6.2429 19.7849 6.2389 19.7849Z" fill="#26B5C0"/>
</svg>
